<?xml version="1.0" encoding="UTF-8" standalone="no"?>
<!DOCTYPE svg PUBLIC "-//W3C//DTD SVG 1.1//EN" "http://www.w3.org/Graphics/SVG/1.1/DTD/svg11.dtd">
<svg xmlns="http://www.w3.org/2000/svg" version="1.1" viewBox="0 0 1024 1024" width="1024.0pt" height="1024.0pt">
<path d="M 0.00 0.00 L 1024.00 0.00 L 1024.00 1024.00 L 0.00 1024.00 L 0.00 0.00 Z" fill="#ffffff" />
<path d="M 398.00 400.11 C 410.80 400.08 423.60 400.22 436.40 400.04 C 436.35 410.31 436.38 420.59 436.39 430.86 C 412.00 442.56 393.26 464.68 383.64 489.76 C 378.14 504.15 376.25 519.45 376.90 534.80 C 367.87 526.55 359.24 517.95 351.74 508.26 C 343.62 497.86 335.66 485.94 331.77 473.24 C 328.40 462.51 328.53 450.82 332.35 440.22 C 336.33 428.70 344.36 419.16 354.37 412.36 C 367.18 403.74 382.64 399.75 398.00 400.11 Z" fill="#010102" />
<path d="M 460.61 401.61 C 472.41 401.65 484.21 401.60 496.01 401.63 C 502.72 401.80 509.17 403.02 514.17 407.82 C 520.83 414.06 521.68 424.69 518.93 432.95 C 516.76 439.13 511.95 443.31 505.79 445.33 C 512.02 453.05 517.72 461.18 523.76 469.04 C 516.86 468.97 509.96 469.00 503.06 469.02 C 497.55 461.69 492.13 454.30 486.79 446.84 C 483.86 446.82 480.93 446.84 478.00 446.89 C 477.96 454.30 478.10 461.73 477.89 469.14 C 472.13 469.03 466.37 469.03 460.61 469.11 C 460.64 446.61 460.63 424.11 460.61 401.61 Z" fill="#010102" />
<path d="M 478.12 416.47 C 482.40 416.23 486.71 416.42 491.00 416.35 C 494.46 416.38 498.32 416.47 500.91 419.11 C 503.44 421.81 503.48 426.60 501.70 429.70 C 500.18 432.34 496.85 433.01 494.04 433.10 C 488.66 433.21 483.28 433.03 477.90 433.19 C 478.16 427.62 477.80 422.03 478.12 416.47 Z" fill="#ffffff" />
<path d="M 549.99 415.42 C 557.55 415.48 565.56 417.44 570.86 423.16 C 574.86 427.68 575.80 433.16 576.04 439.00 C 576.36 448.96 576.35 458.93 576.21 468.89 C 570.73 468.87 565.24 468.87 559.76 468.89 C 559.86 467.42 559.96 465.94 560.06 464.47 C 554.91 468.66 548.50 470.10 541.99 470.29 C 535.75 470.25 529.51 468.63 525.43 463.60 C 521.59 459.20 520.37 452.86 522.42 447.38 C 524.81 441.90 530.16 438.87 535.77 437.55 C 543.52 435.79 552.23 436.23 559.99 435.82 C 559.28 433.54 559.02 431.50 556.67 430.29 C 552.50 428.05 546.76 428.30 542.77 430.88 C 542.58 431.73 542.39 432.58 542.20 433.43 C 535.83 433.35 529.48 432.87 523.11 432.96 C 524.98 428.33 526.73 423.97 530.70 420.70 C 535.84 416.33 543.49 415.39 549.99 415.42 Z" fill="#010102" />
<path d="M 573.92 416.15 C 579.09 416.19 584.25 416.12 589.41 416.19 C 592.84 426.56 597.07 436.93 599.94 447.50 C 603.58 437.05 607.29 426.60 611.49 416.36 C 615.11 416.24 618.72 416.24 622.35 416.32 C 626.24 426.58 630.78 436.85 633.83 447.40 C 637.42 437.01 640.77 426.53 644.36 416.13 C 649.68 416.11 655.00 416.14 660.31 416.09 C 654.14 433.70 648.12 451.36 641.71 468.88 C 637.18 468.88 632.65 468.88 628.12 468.89 C 624.01 458.91 620.57 448.65 617.09 438.43 C 613.83 448.69 610.48 458.90 606.79 469.01 C 602.19 469.03 597.59 469.05 593.00 469.05 C 585.98 451.69 579.36 434.07 573.92 416.15 Z" fill="#010102" />
<path d="M 201.09 416.82 C 217.45 419.26 233.43 423.77 248.58 430.42 C 275.60 442.19 299.64 460.85 318.91 483.05 C 331.90 498.00 342.78 514.69 353.49 531.21 C 334.66 531.11 315.83 531.26 297.00 531.06 C 277.95 531.00 258.69 525.15 243.55 513.43 C 231.73 504.23 222.66 491.87 217.02 478.02 C 208.74 458.18 204.62 437.92 201.09 416.82 Z" fill="#010102" />
<path d="M 543.50 447.61 C 548.75 446.93 554.23 447.33 559.48 447.89 C 559.33 450.45 559.79 452.93 557.95 454.99 C 554.66 458.80 548.81 458.96 544.20 458.49 C 541.02 458.02 537.78 456.36 537.35 452.85 C 537.49 449.69 540.73 448.06 543.50 447.61 Z" fill="#ffffff" />
<path d="M 755.47 466.55 C 759.04 465.52 764.96 465.50 768.52 466.55 C 774.95 468.60 775.00 479.95 768.26 481.54 C 764.38 482.47 759.34 482.32 755.46 481.41 C 748.89 479.74 749.18 468.44 755.47 466.55 Z" fill="#010102" />
<path d="M 487.24 474.28 C 493.92 472.94 501.25 473.01 507.74 475.26 C 522.68 480.66 533.26 495.98 532.11 511.99 C 531.36 527.79 517.93 540.65 502.80 543.38 C 494.86 544.55 486.77 544.10 479.46 540.55 C 471.26 536.84 464.76 530.09 461.36 521.76 C 456.20 509.28 459.33 494.28 468.59 484.58 C 473.58 479.26 480.11 475.75 487.24 474.28 Z" fill="#010102" />
<path d="M 658.97 487.09 C 668.54 485.60 679.12 489.05 685.44 496.53 C 688.90 500.60 690.35 505.70 690.53 510.98 C 691.03 521.47 690.54 532.02 690.52 542.53 C 684.96 542.48 679.42 542.26 673.86 542.52 C 673.92 540.98 673.97 539.44 674.02 537.90 C 668.67 542.28 661.83 543.95 655.00 543.60 C 647.14 543.34 639.36 539.20 636.36 531.64 C 633.28 524.47 636.20 515.85 643.03 512.04 C 651.65 506.90 664.36 507.82 674.07 507.57 C 673.25 504.50 671.95 502.33 668.84 501.18 C 664.10 499.57 656.87 499.92 654.43 505.13 C 648.31 505.07 642.19 505.08 636.07 505.33 C 637.43 501.75 638.88 498.33 641.51 495.48 C 646.06 490.40 652.33 487.97 658.97 487.09 Z" fill="#010102" />
<path d="M 745.14 496.89 C 748.77 502.53 749.01 508.50 749.23 515.00 C 749.38 524.17 749.09 533.36 749.08 542.53 C 743.55 542.38 738.02 542.28 732.49 542.47 C 732.49 532.98 732.52 523.48 732.49 513.99 C 732.31 510.87 732.43 507.40 729.67 505.33 C 723.31 501.34 712.82 504.87 712.02 512.97 C 711.66 522.75 712.00 532.60 711.86 542.39 C 706.02 542.32 700.19 542.42 694.35 542.55 C 694.56 524.58 694.68 506.58 694.62 488.61 C 700.48 488.63 706.34 488.64 712.20 488.60 C 712.08 490.62 711.96 492.64 711.87 494.65 C 714.40 492.00 716.67 489.51 720.24 488.26 C 729.35 485.00 740.02 488.67 745.14 496.89 Z" fill="#010102" />
<path d="M 817.52 489.48 C 823.23 492.27 827.30 497.09 829.81 502.86 C 823.95 502.98 818.32 502.90 812.65 504.62 C 807.51 501.01 800.83 500.75 795.90 504.85 C 790.10 509.61 789.76 518.73 794.83 524.14 C 799.48 529.32 808.05 529.60 813.07 524.78 C 819.14 525.35 825.19 525.69 831.28 525.52 C 828.93 530.36 826.50 534.79 822.05 538.04 C 814.97 543.28 805.14 544.44 796.74 542.23 C 788.68 540.16 781.64 534.56 777.87 527.12 C 774.88 520.96 774.26 513.84 776.23 507.26 C 778.73 498.41 785.84 491.36 794.53 488.49 C 801.99 486.12 810.36 486.08 817.52 489.48 Z" fill="#010102" />
<path d="M 601.99 487.50 C 608.20 487.58 613.00 490.73 617.13 495.08 C 617.08 492.93 617.02 490.77 616.96 488.62 C 622.10 488.63 627.24 488.63 632.39 488.63 C 632.22 507.40 632.86 526.26 632.33 545.02 C 632.13 551.34 628.88 557.29 623.12 560.15 C 616.79 563.41 608.97 561.86 601.99 562.56 C 594.79 563.17 587.17 562.56 581.69 557.31 C 577.73 553.71 576.24 549.13 574.77 544.15 C 580.86 544.13 586.94 544.12 593.03 543.91 C 593.86 547.31 595.26 549.31 598.78 550.21 C 603.64 551.17 610.72 551.39 614.37 547.39 C 617.50 544.25 616.68 539.52 617.07 535.50 C 614.73 537.54 612.48 539.49 609.47 540.50 C 598.44 544.44 585.32 539.90 578.66 530.37 C 573.58 523.37 572.44 514.22 575.09 506.05 C 578.79 494.82 590.07 486.72 601.99 487.50 Z" fill="#010102" />
<path d="M 752.89 488.35 C 758.72 488.23 764.56 488.20 770.39 488.18 C 770.36 506.30 770.36 524.41 770.39 542.53 C 764.48 542.38 758.60 542.33 752.68 542.54 C 752.74 524.47 752.86 506.41 752.89 488.35 Z" fill="#010102" />
<path d="M 535.68 488.66 C 541.58 488.67 547.48 488.67 553.38 488.72 C 553.23 491.62 553.07 494.52 553.02 497.42 C 555.62 494.40 557.66 489.44 562.00 488.85 C 567.60 488.29 573.32 488.84 578.96 488.55 C 574.22 493.42 571.26 499.33 569.31 505.79 C 565.38 506.01 561.41 505.99 557.82 507.81 C 555.08 509.17 552.98 511.78 552.88 514.92 C 552.45 524.10 552.73 533.31 552.56 542.50 C 546.91 542.29 541.26 542.33 535.61 542.52 C 535.65 524.57 535.59 506.61 535.68 488.66 Z" fill="#010102" />
<path d="M 491.21 490.19 C 497.31 488.92 503.80 490.24 508.36 494.64 C 514.03 499.88 516.30 508.25 513.55 515.54 C 510.93 522.77 503.71 527.79 496.02 527.74 C 486.04 528.32 476.89 519.92 476.22 510.03 C 475.62 500.90 482.29 492.14 491.21 490.19 Z" fill="#ffffff" />
<path d="M 598.15 503.06 C 603.80 501.11 610.42 503.32 613.74 508.30 C 617.02 512.82 616.51 519.56 612.40 523.40 C 606.12 529.43 594.77 528.11 590.93 519.95 C 587.35 513.37 591.14 505.19 598.15 503.06 Z" fill="#ffffff" />
<path d="M 659.48 518.64 C 663.73 518.20 668.52 518.04 672.61 519.42 C 674.00 519.84 673.58 521.91 673.68 523.02 C 673.71 525.43 672.83 527.41 670.92 528.90 C 666.89 531.98 660.86 532.30 656.13 530.97 C 652.78 529.99 649.71 526.23 651.63 522.73 C 653.11 520.22 656.74 519.04 659.48 518.64 Z" fill="#ffffff" />
<path d="M 319.96 543.03 C 344.72 545.76 368.14 555.28 388.48 569.53 C 406.91 582.66 422.14 598.77 436.13 616.46 C 391.38 616.64 346.76 616.21 302.00 616.44 C 286.99 616.16 272.00 616.68 257.00 616.37 C 228.88 616.38 200.74 616.51 172.61 616.56 C 179.53 606.58 186.53 596.73 194.70 587.70 C 208.41 572.40 225.14 559.99 244.21 552.19 C 268.17 542.24 294.35 540.31 319.96 543.03 Z" fill="#010102" />
<path d="M 776.45 548.63 C 781.81 548.56 787.15 548.45 792.51 548.59 C 792.48 571.32 792.52 594.32 792.38 617.03 C 787.11 616.97 781.83 617.02 776.55 617.06 C 776.62 615.23 776.67 613.39 776.71 611.56 C 774.44 613.93 772.19 616.10 769.00 617.17 C 758.28 620.86 745.78 617.12 738.80 608.19 C 730.37 597.97 730.73 582.41 739.62 572.59 C 748.09 562.06 766.45 559.17 776.33 569.25 C 776.25 562.38 776.41 555.50 776.45 548.63 Z" fill="#010102" />
<path d="M 460.39 549.95 C 472.92 549.99 485.46 549.88 497.99 550.09 C 503.90 550.17 509.66 551.87 514.12 555.86 C 518.10 559.52 520.16 564.65 520.50 569.99 C 520.85 576.27 519.97 582.81 515.74 587.74 C 513.33 590.68 510.15 592.38 506.66 593.70 C 513.06 601.35 519.19 609.22 525.38 617.04 C 518.30 617.06 511.23 617.16 504.15 617.10 C 498.30 609.87 492.85 602.34 487.21 594.95 C 484.11 595.01 481.01 595.00 477.91 595.01 C 477.85 602.39 477.88 609.78 477.90 617.16 C 472.06 617.10 466.22 617.10 460.38 617.12 C 460.29 594.73 460.45 572.34 460.39 549.95 Z" fill="#010102" />
<path d="M 569.75 572.25 C 575.65 578.51 577.46 586.70 576.93 595.10 C 563.54 595.19 550.13 595.22 536.74 595.01 C 537.63 597.78 538.45 600.31 540.94 602.07 C 546.05 605.66 553.99 605.20 558.01 600.06 C 564.18 600.59 570.35 600.54 576.53 600.48 C 574.74 604.80 572.49 608.78 568.93 611.90 C 562.33 617.97 552.67 619.77 544.01 618.49 C 536.55 617.47 529.64 613.98 525.24 607.74 C 517.83 597.87 517.91 583.29 525.65 573.63 C 535.85 560.27 558.71 559.61 569.75 572.25 Z" fill="#010102" />
<path d="M 656.49 563.74 C 667.46 561.44 679.14 564.92 686.20 573.82 C 694.43 583.74 694.58 599.18 685.86 608.85 C 675.52 620.55 656.74 621.89 644.38 612.66 C 638.15 608.09 634.30 600.65 633.77 592.99 C 633.60 586.60 635.29 580.22 639.02 574.99 C 643.21 569.24 649.45 565.05 656.49 563.74 Z" fill="#010102" />
<path d="M 814.97 563.33 C 821.73 562.55 829.70 562.84 835.79 566.20 C 841.41 569.29 844.76 574.46 846.95 580.34 C 841.21 580.22 835.53 580.76 829.80 580.89 C 828.50 578.73 827.47 576.80 824.86 576.06 C 821.39 574.97 816.17 574.75 813.26 577.30 C 811.58 579.00 813.04 580.55 814.75 581.26 C 821.17 583.71 828.46 583.54 835.00 585.97 C 839.78 587.68 844.81 590.38 846.67 595.43 C 848.27 600.52 847.40 606.66 843.79 610.72 C 839.61 615.72 833.32 617.93 827.02 618.70 C 819.18 619.63 809.82 618.61 803.36 613.66 C 798.88 610.40 796.55 605.77 794.75 600.66 C 800.70 600.77 806.50 600.41 812.41 599.84 C 813.66 602.79 815.31 604.54 818.50 605.30 C 823.13 606.01 828.39 606.76 831.08 601.97 C 829.90 600.95 829.06 599.83 827.52 599.34 C 820.97 597.12 813.19 597.00 806.74 594.36 C 803.54 593.00 800.52 591.43 798.57 588.42 C 794.52 582.29 796.08 573.34 801.67 568.67 C 805.47 565.42 810.09 563.98 814.97 563.33 Z" fill="#010102" />
<path d="M 615.08 563.74 C 624.34 564.77 632.09 571.32 634.68 580.27 C 629.13 580.49 623.72 580.51 618.32 582.01 C 613.09 576.62 604.01 576.20 598.73 581.72 C 593.68 587.06 593.83 595.70 599.39 600.64 C 604.69 605.35 612.81 604.61 617.63 599.52 C 623.23 600.40 628.75 600.41 634.39 600.66 C 632.92 604.31 631.44 607.75 628.73 610.69 C 624.06 616.02 616.92 618.42 610.00 618.76 C 602.65 618.86 595.40 617.11 589.64 612.35 C 582.52 606.80 578.72 598.00 579.52 589.00 C 580.05 578.19 587.62 568.35 597.81 564.85 C 603.32 563.24 609.40 563.23 615.08 563.74 Z" fill="#010102" />
<path d="M 477.89 565.26 C 483.91 565.25 490.00 564.96 496.01 565.41 C 499.05 565.66 501.83 567.38 502.67 570.45 C 503.91 574.37 502.48 580.06 497.86 580.94 C 491.28 581.72 484.52 581.16 477.90 581.49 C 477.87 576.08 477.87 570.67 477.89 565.26 Z" fill="#ffffff" />
<path d="M 696.11 564.73 C 702.25 564.66 708.38 564.73 714.53 564.77 C 714.37 567.79 714.11 570.79 713.97 573.81 C 715.80 571.42 717.33 568.58 719.53 566.54 C 721.37 564.91 723.63 564.66 725.99 564.62 C 730.98 564.57 735.96 564.70 740.95 564.55 C 736.24 569.70 731.95 574.84 730.29 581.81 C 725.77 581.96 721.45 581.96 717.56 584.62 C 714.79 586.52 713.58 589.69 713.55 592.97 C 713.53 600.99 713.80 609.00 713.65 617.02 C 707.81 617.05 701.97 617.07 696.13 617.09 C 695.73 599.63 696.27 582.20 696.11 564.73 Z" fill="#010102" />
<path d="M 554.52 578.43 C 557.28 579.69 558.07 582.02 559.21 584.58 C 551.73 584.66 544.23 584.64 536.74 584.59 C 538.17 582.26 539.21 580.05 541.81 578.80 C 545.41 576.96 550.86 576.74 554.52 578.43 Z" fill="#ffffff" />
<path d="M 658.43 578.44 C 664.09 576.70 670.37 578.13 673.86 583.12 C 678.87 589.84 675.85 600.22 667.95 603.08 C 661.72 605.55 654.25 602.91 651.32 596.80 C 647.77 590.02 650.97 580.81 658.43 578.44 Z" fill="#ffffff" />
<path d="M 757.48 578.52 C 763.48 576.59 770.72 578.29 774.16 583.87 C 777.52 588.86 776.51 596.02 772.00 599.97 C 765.84 605.53 755.14 604.46 750.90 597.06 C 746.71 590.30 750.02 581.15 757.48 578.52 Z" fill="#ffffff" />
</svg>